<?xml version="1.0" encoding="UTF-8"?><svg id="a" xmlns="http://www.w3.org/2000/svg" xmlns:xlink="http://www.w3.org/1999/xlink" viewBox="0 0 555.06 303.09"><defs><style>.c{fill:#cc1027;}.d{fill:url(#b);}</style><linearGradient id="b" x1="206.76" y1="299.68" x2="206.76" y2="0" gradientTransform="matrix(1, 0, 0, 1, 0, 0)" gradientUnits="userSpaceOnUse"><stop offset="0" stop-color="#2f195f"/><stop offset="1" stop-color="#7353ba"/></linearGradient></defs><g><path d="M234.02,151.94h25.87c15.71,0,26.8,1.37,33.25,4.11,7.99,3.41,14.05,8.15,18.18,14.23,4.13,6.08,6.19,13.2,6.19,21.35,0,8.95-2.42,17.06-7.25,24.31-4.83,7.25-11.32,12.53-19.45,15.84-8.13,3.31-21.67,5.1-40.61,5.36l-8.55,62.24h-27.77l20.14-147.44Zm19.56,59.14c15.01-.07,24.81-1.64,29.4-4.71,4.58-3.07,6.87-7.65,6.87-13.73,0-3.41-.89-6.28-2.68-8.62-1.79-2.34-4.44-3.97-7.94-4.91-3.51-.94-10.46-1.4-20.85-1.4l-4.79,33.38Z" style="fill:#cc1027;"/><path d="M390.28,187.52c9.69,0,18.49,2.24,26.41,6.71,7.92,4.48,14.08,10.82,18.49,19.05,4.41,8.22,6.61,17.44,6.61,27.66,0,16.98-6.05,31.42-18.14,43.35-12.09,11.93-27.06,17.89-44.9,17.89-15.5,0-27.86-4.69-37.09-14.08-9.22-9.39-13.83-21.66-13.83-36.84,0-18.31,6.25-33.51,18.74-45.61,12.49-12.09,27.06-18.14,43.7-18.14Zm-1.86,25.36c-10.94,0-19.33,3.93-25.16,11.78-5.84,7.85-8.76,16.35-8.76,25.51,0,8.15,2.38,14.72,7.15,19.7,4.77,4.98,11.12,7.47,19.06,7.47,11.27,0,19.86-3.79,25.77-11.38,5.9-7.58,8.86-16.25,8.86-26.01,0-8.02-2.5-14.53-7.51-19.54-5-5.01-11.47-7.52-19.41-7.52Z" style="fill:#cc1027;"/><path d="M555.06,172.49l-20.14,17.84c-8.29-10.69-16.01-16.04-23.16-16.04-3.54,0-6.48,1.05-8.82,3.16-2.34,2.11-3.51,4.63-3.51,7.57,0,2.74,1.07,5.78,3.21,9.12,2.14,3.34,8.62,10.72,19.45,22.15,5.74,6.08,9.52,10.39,11.33,12.93,4.34,5.88,7.47,11.38,9.37,16.49,1.91,5.11,2.86,10.31,2.86,15.59,0,11.83-4.21,21.75-12.63,29.77-8.42,8.02-19.21,12.03-32.37,12.03-20.05,0-36.39-9.52-49.01-28.56l21.25-17.14c8.55,13.03,17.81,19.54,27.77,19.54,4.74,0,8.74-1.53,11.98-4.61,3.24-3.07,4.86-6.78,4.86-11.12,0-3.41-.99-6.88-2.96-10.42-1.97-3.54-7.6-10.22-16.89-20.05-9.82-10.36-16.27-18.17-19.34-23.45-4.14-7.15-6.21-14.17-6.21-21.05,0-9.09,2.97-17.24,8.92-24.46,7.48-9.02,17.57-13.53,30.27-13.53,17.44,0,32.04,8.08,43.8,24.26Z" style="fill:#cc1027;"/></g><path d="M61.27,281.02h0c-.59,0-.9-.02-1.05-.04-32.71-20.26-48.01-55.63-38.98-90.17,8.18-31.27,34.44-55.25,62.45-57.01,3.58-.23,11.95-1.99,12.39-13.44,.69-18.04,5.45-34.88,14.16-50.05,21.13-36.81,62.38-57.06,102.66-50.39,19.77,3.27,36.67,10.74,50.23,22.19,13.3,11.23,23.81,26.63,31.23,45.78,2.94,7.59,8.28,10.87,15.85,9.76,27.17-4,49.29,5.23,67.61,28.23,8.99,11.28,14.6,23.98,16.81,37.91h18.89c-2.33-18.23-9.39-34.83-21.11-49.53-21.77-27.32-49.21-39.25-81.61-35.5C293.07,34.97,261.16,8.99,215.94,1.51c-47.91-7.94-96.9,15.98-121.88,59.51-9.58,16.69-15.09,35.05-16.41,54.64-15.63,2.07-31.12,9.33-44.09,20.75-14.76,12.99-25.26,30.17-30.36,49.69-5.67,21.69-3.75,43.89,5.55,64.21,8.7,19.01,23.18,35.15,41.87,46.67,3.88,2.39,7.73,2.7,10.65,2.7h.02c39.15,0,78.3,0,117.46,0v-18.66c-39.15,0-78.31,0-117.46,0Z" style="fill:url(#b);"/></svg>